<?xml version="1.0" encoding="UTF-8"?>
<!DOCTYPE svg PUBLIC "-//W3C//DTD SVG 1.1//EN" "http://www.w3.org/Graphics/SVG/1.1/DTD/svg11.dtd">
<!-- Creator: CorelDRAW 2021.5 -->
<svg xmlns="http://www.w3.org/2000/svg" xml:space="preserve" width="67.7248mm" height="67.7247mm" version="1.1" style="shape-rendering:geometricPrecision; text-rendering:geometricPrecision; image-rendering:optimizeQuality; fill-rule:evenodd; clip-rule:evenodd"
viewBox="0 0 2603.48 2603.48"
 xmlns:xlink="http://www.w3.org/1999/xlink"
 xmlns:xodm="http://www.corel.com/coreldraw/odm/2003">
 <defs>
  <style type="text/css">
   <![CDATA[
    .fil1 {fill:#FEFEFE}
    .fil0 {fill:#037DB4}
   ]]>
  </style>
 </defs>
 <g id="Layer_x0020_1">
  <metadata id="CorelCorpID_0Corel-Layer"/>
  <g id="_1285682943120">
   <path class="fil0" d="M2228.57 0l-1853.65 0c-206.2,0 -374.91,168.71 -374.91,374.93l0 372.62c84.73,31.84 314.81,176.83 404.54,231.19 103.31,62.59 124.08,38.5 221.48,-17.05 229.96,-131.16 590.83,-352.81 799.25,-461.89 66.19,-34.64 192.14,26.27 200.3,89.46 -5.7,31.35 -846.79,504.33 -996.66,588.69 -103.89,58.47 -114.93,86.95 -227.9,17.61 -77.98,-47.87 -331.17,-204.18 -401.01,-229.05l0 219.05c103.87,44.61 300.02,168.02 403.35,231.6 106.88,65.77 124.01,37.25 223.19,-17.67 66.83,-37.01 133.63,-76.83 199.73,-115.46 132.99,-77.71 267.81,-151.62 400.47,-230.07 61.58,-36.42 137.5,-84.12 199.94,-115.52 61.5,-30.92 186.51,16.48 199.23,88.37 -20.83,47.17 -329.26,205.42 -395.93,243.72 -134.96,77.53 -270.54,158.7 -406.54,234.14 -266.9,148.06 -280.16,209.83 -423.7,129.49 -105.19,-58.88 -300.91,-191.3 -399.73,-228.74l0 218.65c128.07,59.89 282.33,161.93 409.07,234.9 107.88,62.12 126.63,31.92 224.59,-25.19l800.75 -460.57c62.01,-26.22 189.65,28.11 189.62,100.38 -8.91,29.82 -850.81,496.61 -1006.23,588.2 -104.73,61.72 -110.55,70.77 -218.54,10.18 -117.7,-66.04 -282.83,-178.56 -399.26,-227.93l0 384.5c0,206.21 168.72,374.92 374.91,374.92l1853.65 0c206.2,0 374.91,-168.71 374.91,-374.92l0 -1853.63c0,-206.21 -168.72,-374.93 -374.91,-374.93z"/>
   <path class="fil1" d="M-0 747.54l0 218.96c69.84,24.87 323.03,181.18 401.01,229.05 112.97,69.34 124.01,40.86 227.9,-17.61 149.88,-84.36 990.96,-557.34 996.66,-588.69 -8.16,-63.19 -134.11,-124.1 -200.3,-89.46 -208.42,109.09 -569.29,330.73 -799.25,461.89 -97.41,55.55 -118.17,79.64 -221.48,17.05 -89.73,-54.36 -319.81,-199.36 -404.54,-231.19z"/>
   <path class="fil1" d="M-0 1624.07l0 219.98c116.44,49.37 281.56,161.89 399.26,227.93 108,60.59 113.82,51.54 218.54,-10.18 155.41,-91.59 997.32,-558.38 1006.23,-588.2 0.03,-72.27 -127.61,-126.61 -189.62,-100.38l-800.75 460.57c-97.96,57.11 -116.71,87.31 -224.59,25.19 -126.74,-72.97 -281,-175.01 -409.07,-234.9z"/>
   <path class="fil1" d="M-0 1185.55l0 219.87c98.83,37.45 294.55,169.86 399.73,228.74 143.54,80.34 156.8,18.57 423.7,-129.49 136.01,-75.45 271.58,-156.61 406.54,-234.14 66.67,-38.3 375.1,-196.55 395.93,-243.72 -12.72,-71.89 -137.73,-119.29 -199.23,-88.37 -62.45,31.4 -138.36,79.1 -199.94,115.52 -132.66,78.45 -267.48,152.36 -400.47,230.07 -66.1,38.62 -132.9,78.45 -199.73,115.46 -99.17,54.91 -116.3,83.44 -223.19,17.67 -103.32,-63.58 -299.47,-186.99 -403.35,-231.6z"/>
  </g>
 </g>
</svg>
